<svg width="249" height="32" viewBox="0 0 249 32" fill="none" xmlns="http://www.w3.org/2000/svg">
<path d="M5.736 12.94H19.89V1.6H25.35V31H19.89V18.064H5.736V31H0.276V1.6H5.736V12.94ZM41.391 9.16C44.387 9.16 46.893 9.93 48.909 11.47C50.925 12.982 51.933 15.362 51.933 18.61V31H46.893V27.892C46.641 28.592 45.913 29.362 44.709 30.202C43.505 31.042 41.881 31.448 39.837 31.42C36.925 31.364 34.867 30.678 33.663 29.362C32.459 28.046 31.857 26.52 31.857 24.784C31.857 22.684 32.851 21.046 34.839 19.87C36.827 18.694 39.823 18.106 43.827 18.106H46.515C46.515 16.79 46.109 15.726 45.297 14.914C44.513 14.102 43.309 13.696 41.685 13.696C40.397 13.696 39.347 13.99 38.535 14.578C37.723 15.166 37.275 15.852 37.191 16.636H31.773C31.829 15.012 32.599 13.416 34.083 11.848C35.819 10.056 38.255 9.16 41.391 9.16ZM41.097 26.926C42.777 26.814 44.079 26.296 45.003 25.372C45.955 24.42 46.459 23.272 46.515 21.928H43.911C42.119 21.928 40.579 22.068 39.291 22.348C37.723 22.684 36.939 23.468 36.939 24.7C36.939 25.428 37.331 26.002 38.115 26.422C38.899 26.842 39.893 27.01 41.097 26.926ZM74.0086 23.524H79.3426C78.9786 25.932 77.7886 27.864 75.7726 29.32C73.7846 30.72 71.4886 31.42 68.8846 31.42C65.3286 31.42 62.5146 30.398 60.4426 28.354C58.3426 26.31 57.2926 23.566 57.2926 20.122C57.2926 17.042 58.3286 14.438 60.4006 12.31C62.5006 10.21 65.2726 9.16 68.7166 9.16C71.2086 9.16 73.4906 9.818 75.5626 11.134C77.5786 12.422 78.7406 14.326 79.0486 16.846H73.7146C73.6866 16.258 73.1826 15.6 72.2026 14.872C71.2506 14.172 70.1866 13.822 69.0106 13.822C66.9666 13.822 65.3846 14.41 64.2646 15.586C63.1446 16.762 62.5846 18.274 62.5846 20.122C62.5846 21.942 63.0886 23.496 64.0966 24.784C65.1046 26.1 66.7006 26.758 68.8846 26.758C70.2286 26.758 71.3486 26.45 72.2446 25.834C73.1406 25.19 73.7286 24.42 74.0086 23.524ZM104.27 9.58L96.1643 19.24L104.816 31H98.7263L92.5943 22.6L89.8643 25.624V31H84.6143V0.339999H89.8223V19.156L98.3903 9.58H104.27ZM122.533 31.504C117.997 31.504 114.371 30.104 111.655 27.304C108.967 24.476 107.623 20.808 107.623 16.3C107.623 11.82 108.981 8.18 111.697 5.38C114.441 2.524 118.011 1.096 122.407 1.096C126.327 1.096 129.463 2.062 131.815 3.994C134.195 5.87 135.511 7.97 135.763 10.294H130.051C129.519 9.062 128.595 8.096 127.279 7.396C125.963 6.696 124.395 6.346 122.575 6.346C119.635 6.346 117.353 7.284 115.729 9.16C114.105 10.98 113.293 13.36 113.293 16.3C113.293 19.156 114.161 21.536 115.897 23.44C117.605 25.316 119.845 26.254 122.617 26.254C124.017 26.254 125.249 26.044 126.313 25.624C127.405 25.204 128.217 24.714 128.749 24.154C129.309 23.566 129.757 22.922 130.093 22.222C130.457 21.494 130.681 20.892 130.765 20.416C130.877 19.94 130.933 19.534 130.933 19.198H123.373V14.2H136.477V17.224C136.477 19.66 136.099 21.816 135.343 23.692C134.587 25.568 133.551 27.066 132.235 28.186C130.919 29.278 129.449 30.104 127.825 30.664C126.201 31.224 124.437 31.504 122.533 31.504ZM159.364 24.238H147.184L144.538 31H138.91L150.46 1.6H156.088L167.638 31H162.01L159.364 24.238ZM157.306 19.072L153.274 8.782L149.2 19.072H157.306ZM177.223 6.724H168.025V1.6H191.881V6.724H182.683V31H177.223V6.724ZM197.494 1.6H218.62V6.724H202.954V13.276H216.982V18.4H202.954V25.876H218.62V31H197.494V1.6ZM223.6 3.994V1.6H233.68V3.994H230.026V14.2H227.254V3.994H223.6ZM242.164 11.008L245.818 1.6H248.338V14.2H245.86V6.934L243.256 14.158H241.156L238.258 6.724V14.2H235.822V1.6H238.552L242.164 11.008Z" fill="white"/>
</svg>
