<svg width="475" height="76" viewBox="0 0 475 76" fill="none" xmlns="http://www.w3.org/2000/svg">
<path d="M43.6 33.6V12H54V68H43.6V43.36H16.64V68H6.24V12H16.64V33.6H43.6ZM82.9544 26.4C93.1144 26.4 103.034 31.12 103.034 44.4V68H93.4344V62.08C92.8744 63.6 89.1144 68.88 79.9944 68.8C67.6744 68.72 64.7944 61.2 64.7944 56.16C64.7944 49.04 71.0344 43.44 87.5944 43.44H92.7144C92.7144 39.36 90.6344 35.04 83.5144 35.04C77.9144 35.04 75.1944 38.32 74.9544 40.64H64.6344C64.7944 35.2 70.3944 26.4 82.9544 26.4ZM82.3944 60.24C89.4344 59.76 92.4744 55.2 92.7144 50.72C86.8744 50.72 89.0344 50.72 87.7544 50.72C81.9144 50.72 74.4744 51.12 74.4744 56C74.4744 58.8 77.7544 60.56 82.3944 60.24ZM143.483 53.76H153.643C152.123 63.36 143.323 68.8 133.723 68.8C120.203 68.8 111.643 60.24 111.643 47.28C111.643 35.76 119.963 26.4 133.403 26.4C141.883 26.4 151.963 30.72 153.083 41.04H142.923C142.843 38.88 138.763 35.28 133.963 35.28C125.323 35.28 121.723 41.04 121.723 47.28C121.723 53.04 124.603 59.92 133.723 59.92C139.643 59.92 142.683 56.4 143.483 53.76ZM184.084 45.6L200.564 68H188.964L177.284 52L172.084 57.76V68H162.084V9.6H172.004V45.44L188.324 27.2H199.524L184.084 45.6ZM232.711 68.96C215.271 68.96 204.311 57.04 204.311 40C204.311 23.2 215.431 11.04 232.471 11.04C248.711 11.04 257.111 20.96 257.911 28.56H247.031C245.031 23.92 239.751 21.04 232.791 21.04C221.431 21.04 215.111 29.28 215.111 40C215.111 50.96 222.311 58.96 232.871 58.96C247.031 58.96 248.711 47.92 248.711 45.52H234.311V36H259.271V41.76C259.271 60.96 246.711 68.96 232.711 68.96ZM278.065 55.12L273.025 68H262.305L284.305 12H295.025L317.025 68H306.305L301.265 55.12H278.065ZM289.665 25.68L281.905 45.28H297.345L289.665 25.68ZM316.161 21.76V12H361.601V21.76H344.081V68H333.681V21.76H316.161ZM410.933 12V21.76H381.093V34.24H407.813V44H381.093V58.24H410.933V68H370.693V12H410.933ZM418.819 12H438.019V16.56H431.059V36H425.779V16.56H418.819V12ZM461.139 12H465.939V36H461.219V22.16L456.259 35.92H452.259L446.739 21.76V36H442.099V12H447.299L454.179 29.92L461.139 12Z" fill="black"/>
</svg>
